<?xml version="1.0" encoding="utf-8"?>
<!-- Generator: Adobe Illustrator 15.0.3, SVG Export Plug-In . SVG Version: 6.00 Build 0)  -->
<!DOCTYPE svg PUBLIC "-//W3C//DTD SVG 1.1//EN" "http://www.w3.org/Graphics/SVG/1.1/DTD/svg11.dtd">
<svg version="1.1" id="Ebene_1" xmlns="http://www.w3.org/2000/svg" xmlns:xlink="http://www.w3.org/1999/xlink" x="0px" y="0px"
	 width="384.039px" height="435.043px" viewBox="0 0 384.039 435.043" enable-background="new 0 0 384.039 435.043"
	 xml:space="preserve">
<g id="Podest">
	<polygon fill="none" stroke="#D7B369" stroke-width="3.5" stroke-linecap="round" stroke-linejoin="round" points="
		113.732,380.016 113.732,403.945 265.208,403.945 265.208,380.016 251.328,370.204 126.894,370.204 	"/>
	
		<line fill="none" stroke="#D7B369" stroke-width="3.5" stroke-linecap="round" stroke-linejoin="round" x1="113.732" y1="403.945" x2="149.627" y2="370.204"/>
	
		<line fill="none" stroke="#D7B369" stroke-width="3.5" stroke-linecap="round" stroke-linejoin="round" x1="265.208" y1="403.945" x2="230.27" y2="370.204"/>
</g>
<g id="Blüte">
	<polygon fill="#FFFFFF" stroke="#E42322" stroke-width="3.5" stroke-linecap="round" stroke-linejoin="round" points="
		180.006,185.042 191.626,185.042 190.933,160.934 172.375,160.761 	"/>
	<path fill="#FFFFFF" stroke="#E42322" stroke-width="3.5" stroke-linecap="round" stroke-linejoin="round" d="M131.589,158.853
		c0,0,30.697,30.524,52.725,3.642c0,0-12.083-6.188-24.976-9.192C141.474,149.141,131.589,158.853,131.589,158.853z"/>
	<path fill="#FFFFFF" stroke="#E42322" stroke-width="3.5" stroke-linecap="round" stroke-linejoin="round" d="M230.792,166.137
		c0,0-20.812,19.598-46.827-2.254c13.438-3.843,12.447-5.589,24.629-5.897C222.294,157.639,230.792,166.137,230.792,166.137z"/>
	<path fill="#FFFFFF" stroke="#E42322" stroke-width="3.5" stroke-linecap="round" stroke-linejoin="round" d="M134.364,123.126
		c0,0,6.243,7.631,7.458,14.221c0.779,4.23,1.265,14.243,8.325,18.558c15.608,9.539,32.259,6.417,32.259,6.417
		s-9.274-22.013-15.436-26.882C156.216,126.941,134.364,123.126,134.364,123.126z"/>
	<path fill="#FFFFFF" stroke="#E42322" stroke-width="3.5" stroke-linecap="round" stroke-linejoin="round" d="M232.435,114.199
		c0,0-3.926,17.499-5.07,20.793c-2.175,6.258-2.425,12.855-6.978,17.668c-12.142,12.834-34.341,10.181-34.341,10.181
		s11.446-9.712,15.782-14.568c4.061-4.546,7.569-16.032,10.58-21.332c1.683-2.962,6.362-6.164,9.192-8.059
		C224.438,116.981,232.435,114.199,232.435,114.199z"/>
	<path fill="#FFFFFF" stroke="#E42322" stroke-width="3.5" stroke-linecap="round" stroke-linejoin="round" d="M176.855,97.458
		c0,0-13.271,23.6-13.875,32.953c-1.388,21.505,20.465,30.871,20.465,30.871s7.978-17.864,4.855-27.403
		C183.037,117.795,176.855,97.458,176.855,97.458z"/>
	<path fill="#FFFFFF" stroke="#E42322" stroke-width="3.5" stroke-linecap="round" stroke-linejoin="round" d="M149.452,104.222
		c0,0,1.734,10.579,1.388,18.557c-0.182,4.183,3.523,14.54,6.07,17.864c10.233,13.354,26.015,19.251,26.015,19.251
		s-2.116-18.53-4.683-24.107c-3.989-8.671-11.718-17.328-16.129-22.72C157.43,107.343,149.452,104.222,149.452,104.222z"/>
	<path fill="#FFFFFF" stroke="#E42322" stroke-width="3.5" stroke-linecap="round" stroke-linejoin="round" d="M182.925,96.07
		c0,0-4.336,18.904-3.295,32.258c0.634,8.116,5.551,32.085,5.551,32.085s10.926-17.864,13.181-33.993
		c0.611-4.374-2.151-13.237-4.162-17.17C192.224,105.39,182.925,96.07,182.925,96.07z"/>
	<path fill="#FFFFFF" stroke="#E42322" stroke-width="3.5" stroke-linecap="round" stroke-linejoin="round" d="M198.187,100.58
		c0,0,0.105,10.638,1.84,17.922c1.131,4.751,5.05,11.429,3.039,22.349c-1.128,6.125-17.713,20.604-17.713,20.604
		s-1.767-15.473-2.081-20.639c-0.383-6.286,0.564-19.133,3.295-24.975C188.597,111.497,198.187,100.58,198.187,100.58z"/>
	<path fill="#FFFFFF" stroke="#E42322" stroke-width="3.5" stroke-linecap="round" stroke-linejoin="round" d="M211.257,103.059
		c0,0,7.363,11.831,4.446,28.738c-0.976,5.657-2.202,11.335-9.139,19.833c-3.697,4.529-21.212,9.824-21.212,9.824
		s9.019-10.232,11.272-19.945c2.188-9.425,2.743-16.5,3.469-22.026C200.741,114.56,211.257,103.059,211.257,103.059z"/>
	<path fill="#FFFFFF" stroke="#E42322" stroke-width="3.5" stroke-linecap="round" stroke-linejoin="round" d="M159.338,95.376
		c0,0,2.2,15.075,2.255,19.598c0.348,28.617,22.721,47.521,22.721,47.521s7.435-24.25,0.347-37.288
		C179.987,116.613,159.338,95.376,159.338,95.376z"/>
</g>
<g id="Blau">
	<path fill="#FFFFFF" stroke="#182C80" stroke-width="3" stroke-linecap="round" stroke-linejoin="round" d="M159.581,325.245
		c0,0-15.954-12.432-14-26.666c2.333-17,21.667-17,21.667-17s-14,19,5.333,39.332c0.671,0.707,3.266-0.052,5.333,1.334
		c6.19,4.146,16.667,12.332,16.667,12.332l-21,17.668c0,0-30.85,1.062-38-5.334c-44.865-40.131-67-109-54.333-162.667
		c0.377-1.597,2.667-6,2.667-6s4.639,2.832,4.333,4.333c-16.333,80.333,63.667,150.333,63.667,150.333L159.581,325.245z"/>
	<path fill="#FFFFFF" stroke="#182C80" stroke-width="3" stroke-linecap="round" stroke-linejoin="round" d="M226.379,332.913
		c0,0,80.001-70,63.667-150.333c-0.305-1.501,4.333-4.333,4.333-4.333s2.29,4.403,2.667,6
		c12.668,53.667-9.469,122.536-54.333,162.667c-7.149,6.396-38,5.334-38,5.334l-21-17.668c0,0,10.478-8.188,16.667-12.332
		c2.068-1.387,4.662-0.627,5.333-1.334c19.333-20.332,5.333-39.332,5.333-39.332s19.333,0,21.667,17
		c1.954,14.233-14,26.666-14,26.666L226.379,332.913z"/>
	<g>
		<line fill="none" stroke="#182C80" stroke-width="3" x1="86.659" y1="193" x2="291.635" y2="193"/>
		<line fill="none" stroke="#182C80" stroke-width="3" x1="291.982" y1="197" x2="86.312" y2="197"/>
		<line fill="none" stroke="#182C80" stroke-width="3" x1="86.095" y1="201.5" x2="292.198" y2="201.5"/>
		<line fill="none" stroke="#182C80" stroke-width="3" x1="86.079" y1="206.5" x2="292.215" y2="206.5"/>
		<line fill="none" stroke="#182C80" stroke-width="3" x1="86.289" y1="212" x2="292.005" y2="212"/>
		<line fill="none" stroke="#182C80" stroke-width="3" x1="86.837" y1="218" x2="291.457" y2="218"/>
		<line fill="none" stroke="#182C80" stroke-width="3" x1="87.758" y1="224.5" x2="290.536" y2="224.5"/>
		<line fill="none" stroke="#182C80" stroke-width="3" x1="89.134" y1="231.5" x2="289.161" y2="231.5"/>
		<line fill="none" stroke="#182C80" stroke-width="3" x1="91.039" y1="239" x2="287.256" y2="239"/>
		<line fill="none" stroke="#182C80" stroke-width="3" x1="93.554" y1="247" x2="284.741" y2="247"/>
		<line fill="none" stroke="#182C80" stroke-width="3" x1="96.769" y1="255.5" x2="281.525" y2="255.5"/>
		<line fill="none" stroke="#182C80" stroke-width="3" x1="100.767" y1="264.5" x2="277.528" y2="264.5"/>
		<line fill="none" stroke="#182C80" stroke-width="3" x1="105.636" y1="274" x2="272.659" y2="274"/>
		<line fill="none" stroke="#182C80" stroke-width="3" x1="165.798" y1="284" x2="212.495" y2="284"/>
		<line fill="none" stroke="#182C80" stroke-width="3" x1="162.555" y1="294.5" x2="215.738" y2="294.5"/>
		<line fill="none" stroke="#182C80" stroke-width="3" x1="214.888" y1="305.5" x2="163.406" y2="305.5"/>
		<line fill="none" stroke="#182C80" stroke-width="3" x1="169.25" y1="317" x2="209.045" y2="317"/>
		<line fill="none" stroke="#182C80" stroke-width="3" x1="266.798" y1="284" x2="221.675" y2="284"/>
		<line fill="none" stroke="#182C80" stroke-width="3" x1="156.615" y1="284" x2="111.497" y2="284"/>
		<line fill="none" stroke="#182C80" stroke-width="3" x1="259.843" y1="294.5" x2="231.726" y2="294.5"/>
		<line fill="none" stroke="#182C80" stroke-width="3" x1="118.452" y1="294.5" x2="146.567" y2="294.5"/>
		<line fill="none" stroke="#182C80" stroke-width="3" x1="126.654" y1="305.5" x2="145.949" y2="305.5"/>
		<line fill="none" stroke="#182C80" stroke-width="3" x1="251.641" y1="305.5" x2="232.345" y2="305.5"/>
		<line fill="none" stroke="#182C80" stroke-width="3" x1="226.633" y1="317" x2="241.998" y2="317"/>
		<line fill="none" stroke="#182C80" stroke-width="3" x1="136.297" y1="317" x2="151.662" y2="317"/>
		<line fill="none" stroke="#182C80" stroke-width="3" x1="222.467" y1="329" x2="230.557" y2="329"/>
		<line fill="none" stroke="#182C80" stroke-width="3" x1="147.739" y1="329" x2="155.825" y2="329"/>
	</g>
	<path fill="none" stroke="#182C80" stroke-width="3" d="M86.581,188.579c0,0,15.084-8.188,20.667-8.667
		c6.305-0.541,18.342,5.491,24.667,5.667c7.059,0.196,20.606-5.711,27.667-5.667c6.652,0.042,19.351,5.48,26,5.667
		c8.368,0.235,24.629-5.68,33-5.667c6.769,0.011,19.9,4.805,26.667,4.667c6.193-0.126,18.15-5.034,24.333-4.667
		c5.763,0.342,22,8.667,22,8.667H86.581z"/>
</g>
<path id="Rahmen_um_die_Schrift" fill="#FFFFFF" stroke="#D7B369" stroke-width="5" stroke-linejoin="bevel" d="M102.914,337.913
	c0,0,13.357,5.047,29.456,8.193c19.276,3.77,42.665,5.753,54.223,5.807c11.22,0.051,37.173-1.14,56.531-4.652
	c19.359-3.514,32.123-9.348,32.123-9.348l8.333,28c0,0-14.545,5.858-33.727,9.574c-22.017,4.266-49.793,5.461-62.876,5.426
	c-13.289-0.037-40.479-2.363-62.3-6.771c-17.08-3.452-31.099-8.229-31.099-8.229L102.914,337.913z"/>
<path id="Schrift" fill="#172983" d="M260.728,356.792L260.728,356.792l2.879-0.703c0.651-0.155,1.094-0.422,1.324-0.793
	c0.233-0.371,0.254-0.862,0.077-1.473c-0.18-0.613-0.461-1.031-0.844-1.254c-0.383-0.227-0.875-0.27-1.477-0.117l-3.027,0.734
	L260.728,356.792z M260.388,364.842l-3.931-13.354l1.254-0.309l4.438-1.082c1.363-0.328,2.488-0.263,3.387,0.198
	c0.896,0.465,1.521,1.306,1.875,2.521c0.348,1.168,0.262,2.172-0.254,3.004c-0.164,0.25-0.348,0.478-0.57,0.673
	c0.129,0.03,0.259,0.062,0.367,0.108c0.945,0.344,1.603,1.155,1.98,2.426l0.438,1.496c0.168,0.565,0.312,0.953,0.445,1.151
	c0.133,0.203,0.312,0.324,0.535,0.367l0.102,0.336l-2.746,0.668c-0.16-0.227-0.336-0.559-0.522-1.004
	c-0.191-0.438-0.34-0.867-0.457-1.281l-0.215-0.766c-0.207-0.742-0.488-1.25-0.853-1.496c-0.358-0.258-0.854-0.305-1.496-0.147
	l-2.785,0.68l1.535,5.195l-1.262,0.305L260.388,364.842z M255.364,365.89l-3.414-13.474l1.266-0.266l1.277-0.27l3.422,13.473
	l-1.272,0.266L255.364,365.89z M243.61,367.987L243.61,367.987l-1.176,0.211l-1.188,0.207l-2.897-13.57l1.854-0.328l1.867-0.332
	l4.555,10.38h-0.008l-0.133-11.156l1.852-0.328l1.849-0.327l2.895,13.569l-1.18,0.207l-1.185,0.215l-2.418-11.319l0.13,11.727
	l-1.263,0.219l-1.254,0.223l-4.746-11l0.008-0.004L243.61,367.987z M228.97,370.174l-2.375-13.651l1.284-0.188l1.293-0.188
	l0.884,5.078l4.776-0.688l-0.887-5.078l1.289-0.188l1.297-0.188l2.371,13.66l-1.285,0.185l-1.293,0.188l-1.066-6.152l-4.78,0.69
	l1.069,6.148l-1.28,0.188L228.97,370.174z M222.86,361.01L222.86,361.01c-0.125-0.641-0.426-1.133-0.91-1.465
	c-0.488-0.323-1.082-0.453-1.785-0.375s-1.242,0.297-1.608,0.652c-0.367,0.359-0.517,0.805-0.441,1.34
	c0.051,0.41,0.281,0.711,0.684,0.91c0.398,0.195,1.125,0.352,2.188,0.473c1.938,0.228,3.297,0.603,4.086,1.138
	c0.777,0.526,1.25,1.379,1.406,2.56c0.188,1.383-0.109,2.512-0.883,3.391c-0.777,0.875-1.949,1.397-3.509,1.574
	c-1.629,0.184-2.948-0.074-3.948-0.773c-1.004-0.703-1.617-1.789-1.849-3.258l2.492-0.277c0.113,0.723,0.43,1.246,0.941,1.582
	c0.52,0.34,1.198,0.461,2.047,0.363c0.781-0.086,1.379-0.309,1.793-0.672c0.41-0.363,0.578-0.81,0.508-1.336
	c-0.062-0.478-0.336-0.832-0.82-1.056c-0.483-0.227-1.358-0.409-2.637-0.555c-1.695-0.203-2.895-0.57-3.594-1.091
	c-0.699-0.516-1.125-1.362-1.285-2.543c-0.176-1.336,0.094-2.422,0.82-3.27c0.723-0.844,1.819-1.348,3.289-1.512
	c1.495-0.168,2.711,0.094,3.659,0.77c0.949,0.68,1.56,1.73,1.82,3.152L222.86,361.01z M209.321,361.088l-1.324,5.527l3.242-0.156
	L209.321,361.088z M204.013,372.065l3.633-14.016l1.483-0.07l1.492-0.074l5.211,13.598l-1.391,0.066l-1.396,0.066l-0.977-2.762
	l-4.664,0.227l-0.691,2.836l-1.348,0.066L204.013,372.065z M192.649,372.42l-0.527-13.815l1.301-0.043l1.306-0.043l0.223,5.733
	l4.59-5.887l1.685-0.051l1.694-0.055l-4.934,5.875l5.68,7.934l-1.68,0.055l-1.688,0.056l-4.047-5.974l-1.172,1.396l0.185,4.737
	l-1.302,0.039L192.649,372.42z M178.72,361.709c-0.009,0.203,0.065,0.474,0.215,0.812c0.145,0.332,0.352,0.676,0.608,1.027
	c0.254-0.172,0.474-0.355,0.664-0.539c0.406-0.406,0.613-0.809,0.625-1.215c0-0.348-0.082-0.629-0.27-0.844
	c-0.185-0.207-0.445-0.312-0.763-0.32c-0.319-0.004-0.586,0.094-0.78,0.289C178.821,361.112,178.724,361.374,178.72,361.709z
	 M179.048,370.467c0.345,0.009,0.716-0.086,1.099-0.272c0.315-0.164,0.604-0.366,0.854-0.604l-2.276-3.238
	c-0.312,0.207-0.582,0.426-0.802,0.656c-0.434,0.465-0.659,0.979-0.668,1.539c-0.012,0.531,0.16,0.979,0.513,1.354
	C178.11,370.272,178.532,370.463,179.048,370.467z M176.517,361.851c0.02-1.022,0.332-1.828,0.94-2.414
	c0.613-0.59,1.426-0.879,2.441-0.858c0.949,0.012,1.688,0.309,2.233,0.891c0.539,0.586,0.798,1.367,0.785,2.344
	c-0.016,0.723-0.293,1.438-0.84,2.141c-0.363,0.469-0.812,0.891-1.336,1.258l1.672,2.328l0.06-0.102
	c0.348-0.75,0.569-1.484,0.651-2.207l2.195,0.035c-0.125,0.988-0.406,1.98-0.844,2.969c-0.191,0.453-0.418,0.867-0.66,1.254
	l2.151,2.98l-2.973-0.047l-0.742-1.051c-0.43,0.362-0.875,0.651-1.344,0.866c-0.691,0.324-1.434,0.488-2.227,0.474
	c-1.156-0.021-2.095-0.402-2.816-1.148c-0.723-0.75-1.078-1.703-1.055-2.855c0.02-1.008,0.315-1.867,0.897-2.578
	c0.406-0.508,1.017-1.008,1.824-1.496c-0.32-0.438-0.566-0.891-0.729-1.358C176.603,362.741,176.509,362.272,176.517,361.851z
	 M168.384,367.17c-0.151,1.603-0.702,2.802-1.651,3.605c-0.949,0.793-2.228,1.133-3.832,1.004c-1.598-0.129-2.789-0.656-3.574-1.598
	c-0.781-0.938-1.098-2.207-0.94-3.812l0.87-9.113l1.293,0.103l1.312,0.104l-0.859,8.953c-0.09,0.896,0.052,1.59,0.414,2.082
	c0.367,0.496,0.938,0.773,1.72,0.836c0.784,0.062,1.397-0.121,1.854-0.551c0.453-0.43,0.715-1.094,0.805-1.984l0.859-8.952
	l1.293,0.103l1.309,0.102L168.384,367.17z M145.829,369.788L145.829,369.788l-1.19-0.133l-1.203-0.133l1.852-13.723l1.875,0.207
	l1.892,0.211l0.805,11.152v-0.004l3.66-10.648l1.867,0.211l1.866,0.211l-1.852,13.719l-1.188-0.133l-1.203-0.137l1.548-11.445
	l-3.863,11.191l-1.271-0.146l-1.27-0.146l-0.777-11.797l0.008,0.004L145.829,369.788z M131.552,367.51L131.552,367.51l-1.177-0.206
	l-1.188-0.212l2.895-13.569l1.855,0.328l1.871,0.332l-0.056,11.172v-0.004l4.47-10.388l1.848,0.328l1.844,0.324l-2.897,13.57
	l-1.177-0.207l-1.184-0.211l2.41-11.316l-4.703,10.91l-1.254-0.223l-1.258-0.219l0.125-11.82h0.008L131.552,367.51z M124.661,355.42
	l-2.945,4.978l3.168,0.664L124.661,355.42z M116.239,364.644l7.734-12.562l1.444,0.305l1.465,0.305l0.892,14.379l-1.355-0.285
	l-1.362-0.289l-0.103-2.897l-4.562-0.953l-1.513,2.556l-1.312-0.273L116.239,364.644z M115.985,350.269L115.985,350.269l1.258,0.31
	l1.266,0.309l-2.78,9.457c-0.431,1.457-1.062,2.453-1.888,2.984c-0.823,0.534-1.901,0.633-3.229,0.312
	c-1.34-0.328-2.211-0.923-2.605-1.781c-0.397-0.858-0.375-2.09,0.07-3.702l0.238-0.806l2.34,0.573l-0.234,0.802
	c-0.227,0.81-0.272,1.431-0.145,1.844c0.133,0.41,0.453,0.685,0.969,0.81c0.492,0.121,0.898,0.059,1.195-0.191
	c0.297-0.254,0.555-0.742,0.766-1.465L115.985,350.269z"/>
<g id="Kranz_links">
	<g>
		<path fill="none" stroke="#D7B369" stroke-width="3" stroke-linejoin="bevel" d="M57.976,376.545c0,0-0.227-6.957,0.238-9.213
			c1.431-6.941,10.529-26.322,10.529-26.322s3.111-8.854,22.016-2.153l-8.144,22.556c-1.312-0.197-2.67-0.301-4.061-0.301
			C67.19,361.111,57.976,368.021,57.976,376.545s9.214,15.436,20.579,15.436s20.579-6.911,20.579-15.436
			c0-4.131-2.163-7.883-5.689-10.653"/>
		<path fill="none" stroke="#D7B369" stroke-width="3" stroke-linejoin="bevel" d="M87.888,344.838c0,0-18.857-5.773-24.602,8.824"
			/>
		<path fill="none" stroke="#D7B369" stroke-width="3" stroke-linejoin="bevel" d="M85.734,352.735c0,0-20.029-5.338-26.978,12.53"
			/>
		
			<line fill="none" stroke="#D7B369" stroke-width="3" stroke-linejoin="bevel" x1="98.417" y1="352.975" x2="86.213" y2="350.583"/>
	</g>
	<path fill="#FFFFFF" stroke="#D7B369" stroke-width="3" stroke-linecap="round" stroke-linejoin="round" d="M86.925,298.278
		c0,0,4.253,9.602,2.47,19.891C86.643,334.036,76.5,338.333,76.5,338.333s-2.261-15.883-1.509-21.125
		c0.489-3.404,2.726-10.15,4.801-12.895C81.201,302.452,86.925,298.278,86.925,298.278z"/>
	<path fill="#FFFFFF" stroke="#D7B369" stroke-width="3" stroke-linecap="round" stroke-linejoin="round" d="M64.581,230.913
		c0,0-0.353,10.518,0,14c0.377,3.723,3.195,10.928,3,14.666c-0.346,6.633-8,25.334-8,25.334s-16.417-20.535-15.667-28.668
		C44.666,248.106,64.581,230.913,64.581,230.913z"/>
	
		<line fill="none" stroke="#D7B369" stroke-width="3" stroke-linecap="round" stroke-linejoin="round" x1="86.788" y1="289.911" x2="86.376" y2="299.239"/>
	<path fill="#FFFFFF" stroke="#D7B369" stroke-width="3" stroke-linecap="round" stroke-linejoin="round" d="M40.972,314.465
		c0,0,4.362,11.021,7.133,13.717c2.924,2.845,10.783,5.917,14.677,7.133c3.213,1.004,13.306,2.059,13.306,2.059
		s-10.205-14.314-15.089-17.422C56.397,317.024,40.972,314.465,40.972,314.465z"/>
	<path fill="#FFFFFF" stroke="#D7B369" stroke-width="3" stroke-linecap="round" stroke-linejoin="round" d="M69.791,258.644
		c0,0-9.683,13.708-10.749,19.078c-1.325,6.675,3.292,27.019,3.292,27.019s9.089-11.822,10.557-17.238
		c0.716-2.643,0.633-10.83,0.387-13.558C72.925,270.038,69.791,258.644,69.791,258.644z"/>
	<path fill="#FFFFFF" stroke="#D7B369" stroke-width="3" stroke-linecap="round" stroke-linejoin="round" d="M75.951,284.698
		c0,0-9.348,11.045-9.876,15.639c-0.693,6.022,7.956,22.908,7.956,22.908s8.093-9.328,6.859-24.691
		C80.595,294.887,75.951,284.698,75.951,284.698z"/>
	
		<line fill="none" stroke="#D7B369" stroke-width="3" stroke-linecap="round" stroke-linejoin="round" x1="34.387" y1="308.155" x2="42.069" y2="315.562"/>
	<path fill="#FFFFFF" stroke="#D7B369" stroke-width="3" stroke-linecap="round" stroke-linejoin="round" d="M46.914,244.245
		c0,0-1.333,12-6.333,28.334c-1.749,5.713,12,20.666,12,20.666s7.871-17.496,7.333-23.666
		C59.297,262.487,46.914,244.245,46.914,244.245z"/>
	<path fill="#FFFFFF" stroke="#D7B369" stroke-width="3" stroke-linecap="round" stroke-linejoin="round" d="M52.359,271.232
		c0,0,10.665,16.927,12.104,23.339c1.009,4.491-0.678,18.4-0.678,18.4s-11.28-13.613-12.783-19.174
		C49.529,288.34,52.359,271.232,52.359,271.232z"/>
	<path fill="#FFFFFF" stroke="#D7B369" stroke-width="3" stroke-linecap="round" stroke-linejoin="round" d="M57.395,290.698
		c0,0,0.03,7.791-0.291,10.362c-0.357,2.854-3.109,8.417-2.519,11.233c0.747,3.559,8.619,11.717,8.619,11.717
		s5.245-13.367,4.455-17.916C66.868,301.538,57.395,290.698,57.395,290.698z"/>
	
		<line fill="none" stroke="#D7B369" stroke-width="3" stroke-linecap="round" stroke-linejoin="round" x1="55.071" y1="283.144" x2="58.073" y2="292.829"/>
	<path fill="#FFFFFF" stroke="#D7B369" stroke-width="3" stroke-linecap="round" stroke-linejoin="round" d="M63.605,308.84
		c0,0-0.695,9.236,0,12.209c1.509,6.447,13.58,17.146,13.58,17.146s0.286-14.457-1.646-18.52
		C73.704,315.817,63.605,308.84,63.605,308.84z"/>
	<path fill="#FFFFFF" stroke="#D7B369" stroke-width="3" stroke-linecap="round" stroke-linejoin="round" d="M22.914,235.579
		c0,0,1.354,7.485,1.667,10c0.373,2.987,0.832,9.227,2,12c2.568,6.098,9.947,21.729,16.333,20c3.928-1.062,3.45-11.955,3-16
		c-0.582-5.23-4.647-15.574-8.333-19.332C34.761,239.37,22.914,235.579,22.914,235.579z"/>
	
		<line fill="none" stroke="#D7B369" stroke-width="3" stroke-linecap="round" stroke-linejoin="round" x1="83.496" y1="313.092" x2="80.752" y2="324.616"/>
	
		<line fill="none" stroke="#D7B369" stroke-width="3" stroke-linecap="round" stroke-linejoin="round" x1="51.809" y1="321.872" x2="61.822" y2="329.28"/>
	
		<line fill="none" stroke="#D7B369" stroke-width="3" stroke-linecap="round" stroke-linejoin="round" x1="67.995" y1="318.306" x2="71.973" y2="326.125"/>
	
		<line fill="none" stroke="#D7B369" stroke-width="3" stroke-linecap="round" stroke-linejoin="round" x1="74.305" y1="297.181" x2="73.756" y2="307.606"/>
	
		<line fill="none" stroke="#D7B369" stroke-width="3" stroke-linecap="round" stroke-linejoin="round" x1="75.951" y1="285.521" x2="78.146" y2="277.016"/>
	<path fill="#FFFFFF" stroke="#D7B369" stroke-width="3" stroke-linecap="round" stroke-linejoin="round" d="M50.519,305.127
		c0,0-15.33-13.031-18.69-18.981c-2.729-4.834-5.907-21.499-5.907-21.499s17.667,9.249,21.016,14.721
		C50.329,284.915,50.519,305.127,50.519,305.127z"/>
	<path fill="#FFFFFF" stroke="#D7B369" stroke-width="3" stroke-linecap="round" stroke-linejoin="round" d="M33.378,293.991
		c0,0,2.588,7.555,4.067,9.78c1.887,2.841,6.88,7.417,9.587,9.489c3.327,2.549,14.139,9.007,14.139,9.007
		s-5.866-16.966-10.168-21.015C47.375,297.836,33.378,293.991,33.378,293.991z"/>
	
		<line fill="none" stroke="#D7B369" stroke-width="3" stroke-linecap="round" stroke-linejoin="round" x1="43.837" y1="303.383" x2="49.454" y2="308.129"/>
	
		<line fill="none" stroke="#D7B369" stroke-width="3" stroke-linecap="round" stroke-linejoin="round" x1="34.056" y1="294.668" x2="25.244" y2="287.211"/>
	
		<line fill="none" stroke="#D7B369" stroke-width="3" stroke-linecap="round" stroke-linejoin="round" x1="72.997" y1="250.12" x2="69.372" y2="260.245"/>
	
		<line fill="none" stroke="#D7B369" stroke-width="3" stroke-linecap="round" stroke-linejoin="round" x1="67.122" y1="273.87" x2="65.622" y2="283.62"/>
	
		<line fill="none" stroke="#D7B369" stroke-width="3" stroke-linecap="round" stroke-linejoin="round" x1="35.914" y1="278.579" x2="41.247" y2="285.913"/>
	
		<line fill="none" stroke="#D7B369" stroke-width="3" stroke-linecap="round" stroke-linejoin="round" x1="31.247" y1="250.579" x2="36.581" y2="261.245"/>
	
		<line fill="none" stroke="#D7B369" stroke-width="3" stroke-linecap="round" stroke-linejoin="round" x1="68.914" y1="222.913" x2="63.581" y2="232.579"/>
	<path fill="#FFFFFF" stroke="#D7B369" stroke-width="3" stroke-linecap="round" stroke-linejoin="round" d="M158.885,31.477
		c0,0-8.255,2.951-10.612,4.631c-2.669,1.902-7.466,6.689-8.876,9.648c-1.428,2.993-1.931,13.121-1.931,13.121
		s13.512-4.889,16.401-8.49C156.929,46.572,158.885,31.477,158.885,31.477z"/>
	<path fill="#FFFFFF" stroke="#D7B369" stroke-width="3" stroke-linecap="round" stroke-linejoin="round" d="M139.011,35.915
		c0,0-8.036,5.881-10.034,8.49c-2.624,3.426-6.565,11.382-7.333,15.629c-0.638,3.524,1.158,14.279,1.158,14.279
		s8.272-1.779,10.227-3.666c4.033-3.896,7.699-15.264,8.297-20.839C141.702,46.307,139.011,35.915,139.011,35.915z"/>
	<path fill="#FFFFFF" stroke="#D7B369" stroke-width="3" stroke-linecap="round" stroke-linejoin="round" d="M181.654,29.933
		c0,0-5.101,5.204-6.562,7.139c-2.281,3.025-5.331,10.152-7.91,12.928c-1.576,1.697-5.426,4.427-7.525,5.403
		c-5.55,2.578-20.311,11.053-23.734,5.981c-2.839-4.207,8.273-12.917,11.964-16.401c2.587-2.444,8.871-5.955,11.963-7.718
		c2.062-1.176,6.258-3.44,8.489-4.245C171.555,31.863,181.654,29.933,181.654,29.933z"/>
	<path fill="#FFFFFF" stroke="#D7B369" stroke-width="3" stroke-linecap="round" stroke-linejoin="round" d="M159.464,62.35
		c0,0-8.388,4.558-10.999,6.368c-2.873,1.992-7.574,7.541-10.806,8.876c-4.658,1.925-20.068,1.93-20.068,1.93
		s3.851-9.396,6.176-11.771c2.235-2.283,8.085-5.426,11.19-6.174C140.917,60.143,159.464,62.35,159.464,62.35z"/>
	<path fill="#FFFFFF" stroke="#D7B369" stroke-width="3" stroke-linecap="round" stroke-linejoin="round" d="M119.522,49.229
		c0,0-4.407,7.271-6.21,9.613c-1.481,1.924-5.143,5.251-6.332,7.368c-3.238,5.758-4.438,26.049-4.438,26.049
		s12.066-5.731,14.857-9.069c3.85-4.604,9.119-16.396,8.683-22.383C125.841,57.488,119.522,49.229,119.522,49.229z"/>
	<path fill="#FFFFFF" stroke="#D7B369" stroke-width="3" stroke-linecap="round" stroke-linejoin="round" d="M142.484,78.365
		c0,0-6.972,5.468-9.262,7.333c-2.099,1.708-5.814,5.873-8.298,6.946c-3.345,1.446-10.962,0.757-14.472,1.737
		c-2.703,0.755-10.227,4.631-10.227,4.631s1.936-10.294,3.858-13.121c2.03-2.984,8.032-7.541,11.385-8.876
		c3.736-1.489,12.006-1.868,16.016-1.544C134.319,75.7,142.484,78.365,142.484,78.365z"/>
	
		<line fill="none" stroke="#D7B369" stroke-width="3" stroke-linecap="round" stroke-linejoin="round" x1="158.5" y1="62.543" x2="169.884" y2="58.104"/>
	
		<line fill="none" stroke="#D7B369" stroke-width="3" stroke-linecap="round" stroke-linejoin="round" x1="163.902" y1="24.53" x2="157.92" y2="32.634"/>
	<path fill="#FFFFFF" stroke="#D7B369" stroke-width="3" stroke-linecap="round" stroke-linejoin="round" d="M66.247,207.579
		c0,0-8.206,4.709-10.667,6.667c-2.583,2.054-7.636,6.504-9.333,9.333c-2.062,3.437-4.804,11.33-4.667,15.334
		c0.128,3.742,5.333,14,5.333,14s9.938-6.685,12-10c2.626-4.223,3.674-14.461,4.667-19.334
		C64.39,219.605,66.247,207.579,66.247,207.579z"/>
	
		<line fill="none" stroke="#D7B369" stroke-width="3" stroke-linecap="round" stroke-linejoin="round" x1="142.87" y1="26.267" x2="138.239" y2="36.687"/>
	
		<line fill="none" stroke="#D7B369" stroke-width="3" stroke-linecap="round" stroke-linejoin="round" x1="152.325" y1="76.628" x2="141.326" y2="78.172"/>
	
		<line fill="none" stroke="#D7B369" stroke-width="3" stroke-linecap="round" stroke-linejoin="round" x1="121.645" y1="38.037" x2="119.522" y2="50.386"/>
	<path fill="#FFFFFF" stroke="#D7B369" stroke-width="3" stroke-linecap="round" stroke-linejoin="round" d="M100.033,69.682
		c0,0-5.143,8.784-6.753,11.771c-2.13,3.949-7.472,11.573-8.104,16.015c-0.697,4.908,3.666,19.489,3.666,19.489
		s5.283-7.185,6.946-9.648c2.172-3.216,7.402-9.345,8.297-13.121c0.905-3.82-0.813-11.771-1.543-15.629
		C102.114,76.292,100.033,69.682,100.033,69.682z"/>
	<path fill="#FFFFFF" stroke="#D7B369" stroke-width="3" stroke-linecap="round" stroke-linejoin="round" d="M85.176,83.961
		c0,0,3.162,4.001,3.666,5.596c1.34,4.234,1.226,13.359,0.579,17.752c-0.77,5.237-4.209,15.426-6.754,20.068
		c-1.071,1.955-5.596,6.946-5.596,6.946s-4.233-16.396-4.245-21.997c-0.005-2.602,1.372-7.685,1.929-10.227
		c0.554-2.525,1.249-7.777,2.51-10.034C78.645,89.593,85.176,83.961,85.176,83.961z"/>
	
		<line fill="none" stroke="#D7B369" stroke-width="3" stroke-linecap="round" stroke-linejoin="round" x1="86.333" y1="71.612" x2="85.176" y2="83.961"/>
	
		<line fill="none" stroke="#D7B369" stroke-width="3" stroke-linecap="round" stroke-linejoin="round" x1="102.156" y1="56.947" x2="99.84" y2="70.647"/>
	<path fill="#FFFFFF" stroke="#D7B369" stroke-width="3" stroke-linecap="round" stroke-linejoin="round" d="M129.363,94.574
		c-0.403-2.812-7.784-3.796-10.613-4.052c-3.666-0.332-11.29,0.852-14.472,2.702c-3.551,2.064-8.3,9.147-10.612,12.542
		c-0.802,1.177-3.468,3.816-2.702,5.017c1.456,2.284,8.159-0.196,10.807-0.772c4.176-0.909,12.309-3.854,16.016-5.981
		C121.026,102.168,129.894,98.272,129.363,94.574z"/>
	
		<line fill="none" stroke="#D7B369" stroke-width="3" stroke-linecap="round" stroke-linejoin="round" x1="138.818" y1="91.101" x2="129.363" y2="94.574"/>
	<path fill="#FFFFFF" stroke="#D7B369" stroke-width="3" stroke-linecap="round" stroke-linejoin="round" d="M69.747,103.495
		c0,0-3.665,8.528-4.5,11.5c-0.875,3.116-2.634,9.536-2.25,12.75c0.388,3.251,3.943,8.998,5.25,12c0.816,1.874,3.25,7.5,3.25,7.5
		s4.517-7.659,5.25-10.5c1.111-4.3,1.679-13.407,0.75-17.75C76.591,114.759,69.747,103.495,69.747,103.495z"/>
	<path fill="#FFFFFF" stroke="#D7B369" stroke-width="3" stroke-linecap="round" stroke-linejoin="round" d="M112.997,110.245
		c0,0-6.323,3.544-8,5.25c-1.969,2.003-4.106,7.424-6,9.5c-2.762,3.03-9.374,8.085-13,10c-3.022,1.597-13,4.25-13,4.25
		s4.981-17.61,8.75-22.25c3.159-3.889,11.765-10.507,16.75-11C102.256,105.624,112.997,110.245,112.997,110.245z"/>
	<path fill="#FFFFFF" stroke="#D7B369" stroke-width="3" stroke-linecap="round" stroke-linejoin="round" d="M89.581,134.912
		c0,0-5.017,12.668-8,16c-2.251,2.515-8.485,5.522-11.333,7.333c-2.652,1.688-10.667,6.667-10.667,6.667s0.697-15.67,3.333-20
		c2.298-3.775,9.933-9.293,14.158-10.589C80.064,133.405,89.581,134.912,89.581,134.912z"/>
	
		<line fill="none" stroke="#D7B369" stroke-width="3" stroke-linecap="round" stroke-linejoin="round" x1="123.497" y1="106.995" x2="112.997" y2="110.245"/>
	<path fill="#FFFFFF" stroke="#D7B369" stroke-width="3" stroke-linecap="round" stroke-linejoin="round" d="M58.247,118.245
		c0,0-3.007,11.927-3.333,16c-0.293,3.659-0.327,11.133,0.667,14.667c1.03,3.663,7.333,13.333,7.333,13.333
		s4.231-12.362,4.667-16.667c0.472-4.655,0.524-14.373-1.333-18.667C65.076,124.206,58.247,118.245,58.247,118.245z"/>
	<path fill="#FFFFFF" stroke="#D7B369" stroke-width="3" stroke-linecap="round" stroke-linejoin="round" d="M50.247,136.912
		c0,0-3.936,10.384-4.667,14c-0.859,4.26-2.37,13.113-1.333,17.333c0.75,3.054,6.667,10.667,6.667,10.667s7.47-10.062,8.667-14
		c1.357-4.468,1.451-14.352-0.333-18.667C57.94,143.085,50.247,136.912,50.247,136.912z"/>
	<path fill="#FFFFFF" stroke="#D7B369" stroke-width="3" stroke-linecap="round" stroke-linejoin="round" d="M38.247,152.245
		c0,0-4.61,10.115-5.333,14c-0.797,4.289-1.035,13.096,0,17.333c0.889,3.639,3.489,10.74,5.333,14
		c1.461,2.583,7.333,9.333,7.333,9.333s5.242-14.835,6-20c0.581-3.958,1.221-12.191,0-16
		C49.831,165.451,38.247,152.245,38.247,152.245z"/>
	
		<line fill="none" stroke="#D7B369" stroke-width="3" stroke-linecap="round" stroke-linejoin="round" x1="59.581" y1="105.579" x2="58.914" y2="120.912"/>
	<path fill="#FFFFFF" stroke="#D7B369" stroke-width="3" stroke-linecap="round" stroke-linejoin="round" d="M28.914,180.912
		c0,0,0,10,0,13.333c0,5.167-1.533,15.732,0,20.667c1.919,6.18,14.667,21.333,14.667,21.333s5.876-11.729,6-16
		c0.146-5.059-4.266-14.579-6-19.333c-1.177-3.229-3.249-9.935-5.333-12.667C36.447,185.886,28.914,180.912,28.914,180.912z"/>
	
		<line fill="none" stroke="#D7B369" stroke-width="3" stroke-linecap="round" stroke-linejoin="round" x1="71.581" y1="89.579" x2="69.747" y2="103.495"/>
	<path fill="#FFFFFF" stroke="#D7B369" stroke-width="3" stroke-linecap="round" stroke-linejoin="round" d="M21.581,212.912
		c0,0,1.265,7.559,2,10c1.145,3.793,4.026,11.231,6,14.666c2.933,5.102,14.333,18.668,14.333,18.668s2.85-8.912,3-12
		c0.224-4.545-0.294-14.119-2.667-18c-1.496-2.447-6.877-5.188-9.333-6.668C31.721,217.657,21.581,212.912,21.581,212.912z"/>
	
		<line fill="none" stroke="#D7B369" stroke-width="3" stroke-linecap="round" stroke-linejoin="round" x1="32.247" y1="226.913" x2="39.581" y2="238.913"/>
	
		<line fill="none" stroke="#D7B369" stroke-width="3" stroke-linecap="round" stroke-linejoin="round" x1="56.247" y1="222.913" x2="52.247" y2="234.913"/>
	
		<line fill="none" stroke="#D7B369" stroke-width="3" stroke-linecap="round" stroke-linejoin="round" x1="66.247" y1="207.579" x2="71.581" y2="202.912"/>
	
		<line fill="none" stroke="#D7B369" stroke-width="3" stroke-linecap="round" stroke-linejoin="round" x1="98.914" y1="130.245" x2="89.581" y2="134.912"/>
	
		<line fill="none" stroke="#D7B369" stroke-width="3" stroke-linecap="round" stroke-linejoin="round" x1="24.914" y1="170.245" x2="28.914" y2="180.912"/>
	
		<line fill="none" stroke="#D7B369" stroke-width="3" stroke-linecap="round" stroke-linejoin="round" x1="34.581" y1="197.579" x2="36.914" y2="210.912"/>
	<path fill="#FFFFFF" stroke="#D7B369" stroke-width="3" stroke-linecap="round" stroke-linejoin="round" d="M84.247,154.912
		c0,0-5.792,4.727-7.333,6.667c-2.972,3.738-6.188,13.073-9.333,16.667c-3.293,3.763-16,12-16,12s1.133-13.717,2.667-18
		c1.639-4.575,5.812-14.203,10-16.667C68.559,153.042,84.247,154.912,84.247,154.912z"/>
	<path fill="#FFFFFF" stroke="#D7B369" stroke-width="3" stroke-linecap="round" stroke-linejoin="round" d="M73.581,176.245
		c0,0-3.377,6.872-4,9.333c-0.902,3.569,0.146,11.294-1.333,14.667c-1.895,4.323-9.414,10.58-12.667,14
		c-2.273,2.391-9.333,9.333-9.333,9.333s1.905-15.514,2.667-20.667c0.593-4.012,0.75-12.427,2.667-16
		c1.617-3.014,6.894-7.905,10-9.333C64.323,176.318,73.581,176.245,73.581,176.245z"/>
	<path fill="#FFFFFF" stroke="#D7B369" stroke-width="3" stroke-linecap="round" stroke-linejoin="round" d="M52.247,221.579
		c0,0,3.69-12.393,4-16.667c0.4-5.508-3.333-27.333-3.333-27.333s-8.127,10.622-9.333,13.333c-1.993,4.482-1.315,15.942,0,20.667
		C44.468,214.766,52.247,221.579,52.247,221.579z"/>
	
		<line fill="none" stroke="#D7B369" stroke-width="3" stroke-linecap="round" stroke-linejoin="round" x1="93.581" y1="148.245" x2="84.247" y2="154.912"/>
	
		<line fill="none" stroke="#D7B369" stroke-width="3" stroke-linecap="round" stroke-linejoin="round" x1="50.914" y1="123.579" x2="50.247" y2="136.912"/>
	
		<line fill="none" stroke="#D7B369" stroke-width="3" stroke-linecap="round" stroke-linejoin="round" x1="38.914" y1="136.245" x2="38.247" y2="152.245"/>
	
		<line fill="none" stroke="#D7B369" stroke-width="3" stroke-linecap="round" stroke-linejoin="round" x1="82.247" y1="170.245" x2="73.581" y2="176.245"/>
	<path fill="#FFFFFF" stroke="#D7B369" stroke-width="3" stroke-linecap="round" stroke-linejoin="round" d="M40.247,168.245
		c-0.564-3.698-1.629-7.182,2.667,10"/>
	
		<line fill="none" stroke="#D7B369" stroke-width="3" stroke-linecap="round" stroke-linejoin="round" x1="49.581" y1="197.579" x2="49.581" y2="207.579"/>
	
		<line fill="none" stroke="#D7B369" stroke-width="3" stroke-linecap="round" stroke-linejoin="round" x1="68.914" y1="161.579" x2="60.247" y2="170.245"/>
	
		<line fill="none" stroke="#D7B369" stroke-width="3" stroke-linecap="round" stroke-linejoin="round" x1="162.914" y1="42.912" x2="150.914" y2="51.579"/>
	
		<line fill="none" stroke="#D7B369" stroke-width="3" stroke-linecap="round" stroke-linejoin="round" x1="51.581" y1="150.912" x2="52.247" y2="160.245"/>
	
		<line fill="none" stroke="#D7B369" stroke-width="3" stroke-linecap="round" stroke-linejoin="round" x1="61.581" y1="185.579" x2="60.247" y2="194.245"/>
	
		<line fill="none" stroke="#D7B369" stroke-width="3" stroke-linecap="round" stroke-linejoin="round" x1="96.914" y1="115.579" x2="85.581" y2="124.912"/>
	
		<line fill="none" stroke="#D7B369" stroke-width="3" stroke-linecap="round" stroke-linejoin="round" x1="78.914" y1="141.579" x2="71.497" y2="147.245"/>
	
		<line fill="none" stroke="#D7B369" stroke-width="3" stroke-linecap="round" stroke-linejoin="round" x1="126.914" y1="82.245" x2="114.914" y2="84.245"/>
	
		<line fill="none" stroke="#D7B369" stroke-width="3" stroke-linecap="round" stroke-linejoin="round" x1="118.914" y1="63.579" x2="111.581" y2="70.912"/>
	
		<line fill="none" stroke="#D7B369" stroke-width="3" stroke-linecap="round" stroke-linejoin="round" x1="139.581" y1="67.579" x2="130.914" y2="70.245"/>
	
		<line fill="none" stroke="#D7B369" stroke-width="3" stroke-linecap="round" stroke-linejoin="round" x1="82.914" y1="97.579" x2="82.247" y2="107.579"/>
	
		<line fill="none" stroke="#D7B369" stroke-width="3" stroke-linecap="round" stroke-linejoin="round" x1="68.914" y1="118.912" x2="70.914" y2="124.245"/>
	
		<line fill="none" stroke="#D7B369" stroke-width="3" stroke-linecap="round" stroke-linejoin="round" x1="114.914" y1="96.245" x2="104.247" y2="100.245"/>
	
		<line fill="none" stroke="#D7B369" stroke-width="3" stroke-linecap="round" stroke-linejoin="round" x1="96.914" y1="87.579" x2="94.914" y2="94.912"/>
	
		<line fill="none" stroke="#D7B369" stroke-width="3" stroke-linecap="round" stroke-linejoin="round" x1="134.247" y1="47.579" x2="130.247" y2="54.245"/>
	
		<line fill="none" stroke="#D7B369" stroke-width="3" stroke-linecap="round" stroke-linejoin="round" x1="60.914" y1="131.579" x2="61.581" y2="140.245"/>
	
		<line fill="none" stroke="#D7B369" stroke-width="3" stroke-linecap="round" stroke-linejoin="round" x1="58.914" y1="251.579" x2="58.914" y2="255.579"/>
	
		<line fill="none" stroke="#D7B369" stroke-width="3" stroke-linecap="round" stroke-linejoin="round" x1="51.581" y1="260.245" x2="51.581" y2="265.579"/>
	
		<line fill="none" stroke="#D7B369" stroke-width="3" stroke-linecap="round" stroke-linejoin="round" x1="18.914" y1="202.245" x2="21.581" y2="212.912"/>
	
		<line fill="none" stroke="#D7B369" stroke-width="3" stroke-linecap="round" stroke-linejoin="round" x1="19.581" y1="228.913" x2="22.914" y2="235.579"/>
	
		<line fill="none" stroke="#D7B369" stroke-width="3" stroke-linecap="round" stroke-linejoin="round" x1="21.581" y1="262.245" x2="25.921" y2="264.647"/>
</g>
<g id="Kranz_rechts">
	<g>
		<path fill="none" stroke="#D7B369" stroke-width="3" stroke-linejoin="bevel" d="M319.593,376.545c0,0,0.226-6.957-0.239-9.213
			c-1.43-6.941-10.529-26.322-10.529-26.322s-3.11-8.854-22.016-2.153l8.144,22.556c1.312-0.197,2.67-0.301,4.062-0.301
			C310.379,361.111,319.593,368.021,319.593,376.545s-9.214,15.436-20.579,15.436c-11.366,0-20.58-6.911-20.58-15.436
			c0-4.131,2.164-7.883,5.689-10.653"/>
		<path fill="none" stroke="#D7B369" stroke-width="3" stroke-linejoin="bevel" d="M289.68,344.838c0,0,18.856-5.773,24.601,8.824"
			/>
		<path fill="none" stroke="#D7B369" stroke-width="3" stroke-linejoin="bevel" d="M291.834,352.735c0,0,20.029-5.338,26.978,12.53"
			/>
		
			<line fill="none" stroke="#D7B369" stroke-width="3" stroke-linejoin="bevel" x1="279.151" y1="352.975" x2="291.355" y2="350.583"/>
	</g>
	<path fill="#FFFFFF" stroke="#D7B369" stroke-width="3" stroke-linecap="round" stroke-linejoin="round" d="M290.643,298.278
		c0,0-4.252,9.602-2.47,19.891c2.751,15.865,12.895,20.164,12.895,20.164s2.261-15.883,1.509-21.125
		c-0.488-3.404-2.726-10.15-4.801-12.895C296.367,302.452,290.643,298.278,290.643,298.278z"/>
	<path fill="#FFFFFF" stroke="#D7B369" stroke-width="3" stroke-linecap="round" stroke-linejoin="round" d="M312.988,230.913
		c0,0,0.354,10.518,0,14c-0.377,3.723-3.194,10.928-3,14.666c0.347,6.633,8,25.334,8,25.334s16.417-20.535,15.667-28.668
		C332.903,248.106,312.988,230.913,312.988,230.913z"/>
	
		<line fill="none" stroke="#D7B369" stroke-width="3" stroke-linecap="round" stroke-linejoin="round" x1="290.78" y1="289.911" x2="291.192" y2="299.239"/>
	<path fill="#FFFFFF" stroke="#D7B369" stroke-width="3" stroke-linecap="round" stroke-linejoin="round" d="M336.597,314.465
		c0,0-4.363,11.021-7.133,13.717c-2.925,2.845-10.783,5.917-14.678,7.133c-3.213,1.004-13.306,2.059-13.306,2.059
		s10.205-14.314,15.089-17.422C321.172,317.024,336.597,314.465,336.597,314.465z"/>
	<path fill="#FFFFFF" stroke="#D7B369" stroke-width="3" stroke-linecap="round" stroke-linejoin="round" d="M307.778,258.644
		c0,0,9.684,13.708,10.749,19.078c1.325,6.675-3.292,27.019-3.292,27.019s-9.089-11.822-10.556-17.238
		c-0.716-2.643-0.633-10.83-0.387-13.558C304.644,270.038,307.778,258.644,307.778,258.644z"/>
	<path fill="#FFFFFF" stroke="#D7B369" stroke-width="3" stroke-linecap="round" stroke-linejoin="round" d="M301.617,284.698
		c0,0,9.349,11.045,9.876,15.639c0.693,6.022-7.956,22.908-7.956,22.908s-8.093-9.328-6.858-24.691
		C296.973,294.887,301.617,284.698,301.617,284.698z"/>
	
		<line fill="none" stroke="#D7B369" stroke-width="3" stroke-linecap="round" stroke-linejoin="round" x1="343.181" y1="308.155" x2="335.499" y2="315.562"/>
	<path fill="#FFFFFF" stroke="#D7B369" stroke-width="3" stroke-linecap="round" stroke-linejoin="round" d="M330.654,244.245
		c0,0,1.333,12,6.333,28.334c1.749,5.713-12,20.666-12,20.666s-7.871-17.496-7.333-23.666
		C318.271,262.487,330.654,244.245,330.654,244.245z"/>
	<path fill="#FFFFFF" stroke="#D7B369" stroke-width="3" stroke-linecap="round" stroke-linejoin="round" d="M325.21,271.232
		c0,0-10.665,16.927-12.105,23.339c-1.008,4.491,0.678,18.4,0.678,18.4s11.28-13.613,12.783-19.174
		C328.04,288.34,325.21,271.232,325.21,271.232z"/>
	<path fill="#FFFFFF" stroke="#D7B369" stroke-width="3" stroke-linecap="round" stroke-linejoin="round" d="M320.174,290.698
		c0,0-0.031,7.791,0.291,10.362c0.356,2.854,3.108,8.417,2.518,11.233c-0.747,3.559-8.619,11.717-8.619,11.717
		s-5.245-13.367-4.455-17.916C310.701,301.538,320.174,290.698,320.174,290.698z"/>
	
		<line fill="none" stroke="#D7B369" stroke-width="3" stroke-linecap="round" stroke-linejoin="round" x1="322.498" y1="283.144" x2="319.496" y2="292.829"/>
	<path fill="#FFFFFF" stroke="#D7B369" stroke-width="3" stroke-linecap="round" stroke-linejoin="round" d="M313.964,308.84
		c0,0,0.694,9.236,0,12.209c-1.51,6.447-13.58,17.146-13.58,17.146s-0.286-14.457,1.646-18.52
		C303.865,315.817,313.964,308.84,313.964,308.84z"/>
	<path fill="#FFFFFF" stroke="#D7B369" stroke-width="3" stroke-linecap="round" stroke-linejoin="round" d="M354.654,235.579
		c0,0-1.353,7.485-1.667,10c-0.373,2.987-0.832,9.227-2,12c-2.567,6.098-9.947,21.729-16.333,20c-3.928-1.062-3.45-11.955-3-16
		c0.582-5.23,4.648-15.574,8.333-19.332C342.808,239.37,354.654,235.579,354.654,235.579z"/>
	
		<line fill="none" stroke="#D7B369" stroke-width="3" stroke-linecap="round" stroke-linejoin="round" x1="294.073" y1="313.092" x2="296.816" y2="324.616"/>
	
		<line fill="none" stroke="#D7B369" stroke-width="3" stroke-linecap="round" stroke-linejoin="round" x1="325.76" y1="321.872" x2="315.746" y2="329.28"/>
	
		<line fill="none" stroke="#D7B369" stroke-width="3" stroke-linecap="round" stroke-linejoin="round" x1="309.573" y1="318.306" x2="305.595" y2="326.125"/>
	
		<line fill="none" stroke="#D7B369" stroke-width="3" stroke-linecap="round" stroke-linejoin="round" x1="303.263" y1="297.181" x2="303.812" y2="307.606"/>
	
		<line fill="none" stroke="#D7B369" stroke-width="3" stroke-linecap="round" stroke-linejoin="round" x1="301.617" y1="285.521" x2="299.423" y2="277.016"/>
	<path fill="#FFFFFF" stroke="#D7B369" stroke-width="3" stroke-linecap="round" stroke-linejoin="round" d="M327.05,305.127
		c0,0,15.33-13.031,18.689-18.981c2.73-4.834,5.907-21.499,5.907-21.499s-17.667,9.249-21.015,14.721
		C327.239,284.915,327.05,305.127,327.05,305.127z"/>
	<path fill="#FFFFFF" stroke="#D7B369" stroke-width="3" stroke-linecap="round" stroke-linejoin="round" d="M344.19,293.991
		c0,0-2.588,7.555-4.067,9.78c-1.887,2.841-6.88,7.417-9.587,9.489c-3.326,2.549-14.139,9.007-14.139,9.007
		s5.867-16.966,10.168-21.015C330.194,297.836,344.19,293.991,344.19,293.991z"/>
	
		<line fill="none" stroke="#D7B369" stroke-width="3" stroke-linecap="round" stroke-linejoin="round" x1="333.731" y1="303.383" x2="328.114" y2="308.129"/>
	
		<line fill="none" stroke="#D7B369" stroke-width="3" stroke-linecap="round" stroke-linejoin="round" x1="343.512" y1="294.668" x2="352.325" y2="287.211"/>
	
		<line fill="none" stroke="#D7B369" stroke-width="3" stroke-linecap="round" stroke-linejoin="round" x1="304.571" y1="250.12" x2="308.196" y2="260.245"/>
	
		<line fill="none" stroke="#D7B369" stroke-width="3" stroke-linecap="round" stroke-linejoin="round" x1="310.446" y1="273.87" x2="311.946" y2="283.62"/>
	
		<line fill="none" stroke="#D7B369" stroke-width="3" stroke-linecap="round" stroke-linejoin="round" x1="341.654" y1="278.579" x2="336.321" y2="285.913"/>
	
		<line fill="none" stroke="#D7B369" stroke-width="3" stroke-linecap="round" stroke-linejoin="round" x1="346.321" y1="250.579" x2="340.988" y2="261.245"/>
	
		<line fill="none" stroke="#D7B369" stroke-width="3" stroke-linecap="round" stroke-linejoin="round" x1="308.654" y1="222.913" x2="313.988" y2="232.579"/>
	<path fill="#FFFFFF" stroke="#D7B369" stroke-width="3" stroke-linecap="round" stroke-linejoin="round" d="M218.683,31.477
		c0,0,8.255,2.951,10.612,4.631c2.669,1.902,7.467,6.689,8.876,9.648c1.428,2.993,1.931,13.121,1.931,13.121
		s-13.512-4.889-16.401-8.49C220.639,46.572,218.683,31.477,218.683,31.477z"/>
	<path fill="#FFFFFF" stroke="#D7B369" stroke-width="3" stroke-linecap="round" stroke-linejoin="round" d="M238.558,35.915
		c0,0,8.036,5.881,10.033,8.49c2.624,3.426,6.565,11.382,7.333,15.629c0.638,3.524-1.157,14.279-1.157,14.279
		s-8.273-1.779-10.228-3.666c-4.033-3.896-7.699-15.264-8.297-20.839C235.867,46.307,238.558,35.915,238.558,35.915z"/>
	<path fill="#FFFFFF" stroke="#D7B369" stroke-width="3" stroke-linecap="round" stroke-linejoin="round" d="M195.914,29.933
		c0,0,5.102,5.204,6.562,7.139c2.281,3.025,5.332,10.152,7.911,12.928c1.575,1.697,5.425,4.427,7.524,5.403
		c5.55,2.578,20.312,11.053,23.734,5.981c2.839-4.207-8.273-12.917-11.963-16.401c-2.587-2.444-8.872-5.955-11.963-7.718
		c-2.062-1.176-6.259-3.44-8.49-4.245C206.013,31.863,195.914,29.933,195.914,29.933z"/>
	<path fill="#FFFFFF" stroke="#D7B369" stroke-width="3" stroke-linecap="round" stroke-linejoin="round" d="M218.104,62.35
		c0,0,8.388,4.558,10.999,6.368c2.873,1.992,7.575,7.541,10.806,8.876c4.658,1.925,20.068,1.93,20.068,1.93
		s-3.851-9.396-6.176-11.771c-2.235-2.283-8.085-5.426-11.19-6.174C236.651,60.143,218.104,62.35,218.104,62.35z"/>
	<path fill="#FFFFFF" stroke="#D7B369" stroke-width="3" stroke-linecap="round" stroke-linejoin="round" d="M258.046,49.229
		c0,0,4.407,7.271,6.21,9.613c1.481,1.924,5.143,5.251,6.332,7.368c3.238,5.758,4.438,26.049,4.438,26.049
		s-12.066-5.731-14.857-9.069c-3.85-4.604-9.119-16.396-8.683-22.383C251.728,57.488,258.046,49.229,258.046,49.229z"/>
	<path fill="#FFFFFF" stroke="#D7B369" stroke-width="3" stroke-linecap="round" stroke-linejoin="round" d="M235.084,78.365
		c0,0,6.973,5.468,9.263,7.333c2.098,1.708,5.813,5.873,8.297,6.946c3.345,1.446,10.962,0.757,14.472,1.737
		c2.703,0.755,10.227,4.631,10.227,4.631s-1.936-10.294-3.858-13.121c-2.03-2.984-8.032-7.541-11.384-8.876
		c-3.737-1.489-12.007-1.868-16.017-1.544C243.249,75.7,235.084,78.365,235.084,78.365z"/>
	
		<line fill="none" stroke="#D7B369" stroke-width="3" stroke-linecap="round" stroke-linejoin="round" x1="219.069" y1="62.543" x2="207.685" y2="58.104"/>
	
		<line fill="none" stroke="#D7B369" stroke-width="3" stroke-linecap="round" stroke-linejoin="round" x1="213.666" y1="24.53" x2="219.648" y2="32.634"/>
	<path fill="#FFFFFF" stroke="#D7B369" stroke-width="3" stroke-linecap="round" stroke-linejoin="round" d="M311.321,207.579
		c0,0,8.206,4.709,10.667,6.667c2.583,2.054,7.636,6.504,9.333,9.333c2.062,3.437,4.805,11.33,4.667,15.334
		c-0.128,3.742-5.333,14-5.333,14s-9.938-6.685-12-10c-2.626-4.223-3.674-14.461-4.667-19.334
		C313.178,219.605,311.321,207.579,311.321,207.579z"/>
	
		<line fill="none" stroke="#D7B369" stroke-width="3" stroke-linecap="round" stroke-linejoin="round" x1="234.699" y1="26.267" x2="239.33" y2="36.687"/>
	
		<line fill="none" stroke="#D7B369" stroke-width="3" stroke-linecap="round" stroke-linejoin="round" x1="225.244" y1="76.628" x2="236.242" y2="78.172"/>
	
		<line fill="none" stroke="#D7B369" stroke-width="3" stroke-linecap="round" stroke-linejoin="round" x1="255.924" y1="38.037" x2="258.046" y2="50.386"/>
	<path fill="#FFFFFF" stroke="#D7B369" stroke-width="3" stroke-linecap="round" stroke-linejoin="round" d="M277.535,69.682
		c0,0,5.144,8.784,6.753,11.771c2.13,3.949,7.473,11.573,8.104,16.015c0.697,4.908-3.666,19.489-3.666,19.489
		s-5.283-7.185-6.946-9.648c-2.172-3.216-7.402-9.345-8.297-13.121c-0.905-3.82,0.813-11.771,1.543-15.629
		C275.455,76.292,277.535,69.682,277.535,69.682z"/>
	<path fill="#FFFFFF" stroke="#D7B369" stroke-width="3" stroke-linecap="round" stroke-linejoin="round" d="M292.393,83.961
		c0,0-3.162,4.001-3.666,5.596c-1.339,4.234-1.226,13.359-0.579,17.752c0.77,5.237,4.209,15.426,6.754,20.068
		c1.072,1.955,5.596,6.946,5.596,6.946s4.233-16.396,4.245-21.997c0.005-2.602-1.372-7.685-1.929-10.227
		c-0.553-2.525-1.249-7.777-2.509-10.034C298.925,89.593,292.393,83.961,292.393,83.961z"/>
	
		<line fill="none" stroke="#D7B369" stroke-width="3" stroke-linecap="round" stroke-linejoin="round" x1="291.235" y1="71.612" x2="292.393" y2="83.961"/>
	
		<line fill="none" stroke="#D7B369" stroke-width="3" stroke-linecap="round" stroke-linejoin="round" x1="275.413" y1="56.947" x2="277.728" y2="70.647"/>
	<path fill="#FFFFFF" stroke="#D7B369" stroke-width="3" stroke-linecap="round" stroke-linejoin="round" d="M248.206,94.574
		c0.403-2.812,7.784-3.796,10.613-4.052c3.666-0.332,11.29,0.852,14.472,2.702c3.551,2.064,8.3,9.147,10.612,12.542
		c0.802,1.177,3.468,3.816,2.702,5.017c-1.456,2.284-8.159-0.196-10.807-0.772c-4.176-0.909-12.309-3.854-16.016-5.981
		C256.542,102.168,247.675,98.272,248.206,94.574z"/>
	
		<line fill="none" stroke="#D7B369" stroke-width="3" stroke-linecap="round" stroke-linejoin="round" x1="238.75" y1="91.101" x2="248.206" y2="94.574"/>
	<path fill="#FFFFFF" stroke="#D7B369" stroke-width="3" stroke-linecap="round" stroke-linejoin="round" d="M307.821,103.495
		c0,0,3.665,8.528,4.5,11.5c0.875,3.116,2.634,9.536,2.25,12.75c-0.388,3.251-3.942,8.998-5.25,12c-0.815,1.874-3.25,7.5-3.25,7.5
		s-4.516-7.659-5.25-10.5c-1.11-4.3-1.679-13.407-0.75-17.75C300.978,114.759,307.821,103.495,307.821,103.495z"/>
	<path fill="#FFFFFF" stroke="#D7B369" stroke-width="3" stroke-linecap="round" stroke-linejoin="round" d="M264.571,110.245
		c0,0,6.323,3.544,8,5.25c1.969,2.003,4.107,7.424,6,9.5c2.762,3.03,9.374,8.085,13,10c3.023,1.597,13,4.25,13,4.25
		s-4.98-17.61-8.75-22.25c-3.159-3.889-11.764-10.507-16.75-11C275.312,105.624,264.571,110.245,264.571,110.245z"/>
	<path fill="#FFFFFF" stroke="#D7B369" stroke-width="3" stroke-linecap="round" stroke-linejoin="round" d="M287.988,134.912
		c0,0,5.017,12.668,8,16c2.251,2.515,8.486,5.522,11.333,7.333c2.653,1.688,10.667,6.667,10.667,6.667s-0.696-15.67-3.333-20
		c-2.298-3.775-9.932-9.293-14.158-10.589C297.504,133.405,287.988,134.912,287.988,134.912z"/>
	
		<line fill="none" stroke="#D7B369" stroke-width="3" stroke-linecap="round" stroke-linejoin="round" x1="254.071" y1="106.995" x2="264.571" y2="110.245"/>
	<path fill="#FFFFFF" stroke="#D7B369" stroke-width="3" stroke-linecap="round" stroke-linejoin="round" d="M319.321,118.245
		c0,0,3.007,11.927,3.333,16c0.293,3.659,0.327,11.133-0.667,14.667c-1.029,3.663-7.333,13.333-7.333,13.333
		s-4.23-12.362-4.667-16.667c-0.471-4.655-0.523-14.373,1.333-18.667C312.492,124.206,319.321,118.245,319.321,118.245z"/>
	<path fill="#FFFFFF" stroke="#D7B369" stroke-width="3" stroke-linecap="round" stroke-linejoin="round" d="M327.321,136.912
		c0,0,3.937,10.384,4.667,14c0.86,4.26,2.37,13.113,1.333,17.333c-0.75,3.054-6.667,10.667-6.667,10.667s-7.47-10.062-8.667-14
		c-1.356-4.468-1.451-14.352,0.333-18.667C319.629,143.085,327.321,136.912,327.321,136.912z"/>
	<path fill="#FFFFFF" stroke="#D7B369" stroke-width="3" stroke-linecap="round" stroke-linejoin="round" d="M339.321,152.245
		c0,0,4.611,10.115,5.333,14c0.797,4.289,1.035,13.096,0,17.333c-0.888,3.639-3.489,10.74-5.333,14
		c-1.461,2.583-7.333,9.333-7.333,9.333s-5.242-14.835-6-20c-0.581-3.958-1.221-12.191,0-16
		C327.738,165.451,339.321,152.245,339.321,152.245z"/>
	
		<line fill="none" stroke="#D7B369" stroke-width="3" stroke-linecap="round" stroke-linejoin="round" x1="317.988" y1="105.579" x2="318.655" y2="120.912"/>
	<path fill="#FFFFFF" stroke="#D7B369" stroke-width="3" stroke-linecap="round" stroke-linejoin="round" d="M348.655,180.912
		c0,0,0,10,0,13.333c0,5.167,1.533,15.732,0,20.667c-1.919,6.18-14.667,21.333-14.667,21.333s-5.876-11.729-6-16
		c-0.146-5.059,4.267-14.579,6-19.333c1.177-3.229,3.249-9.935,5.333-12.667C341.121,185.886,348.655,180.912,348.655,180.912z"/>
	
		<line fill="none" stroke="#D7B369" stroke-width="3" stroke-linecap="round" stroke-linejoin="round" x1="305.988" y1="89.579" x2="307.821" y2="103.495"/>
	<path fill="#FFFFFF" stroke="#D7B369" stroke-width="3" stroke-linecap="round" stroke-linejoin="round" d="M355.988,212.912
		c0,0-1.264,7.559-2,10c-1.144,3.793-4.025,11.231-6,14.666c-2.932,5.102-14.333,18.668-14.333,18.668s-2.849-8.912-3-12
		c-0.223-4.545,0.294-14.119,2.667-18c1.496-2.447,6.877-5.188,9.333-6.668C345.848,217.657,355.988,212.912,355.988,212.912z"/>
	
		<line fill="none" stroke="#D7B369" stroke-width="3" stroke-linecap="round" stroke-linejoin="round" x1="345.321" y1="226.913" x2="337.988" y2="238.913"/>
	
		<line fill="none" stroke="#D7B369" stroke-width="3" stroke-linecap="round" stroke-linejoin="round" x1="321.321" y1="222.913" x2="325.321" y2="234.913"/>
	
		<line fill="none" stroke="#D7B369" stroke-width="3" stroke-linecap="round" stroke-linejoin="round" x1="311.321" y1="207.579" x2="305.988" y2="202.912"/>
	
		<line fill="none" stroke="#D7B369" stroke-width="3" stroke-linecap="round" stroke-linejoin="round" x1="278.655" y1="130.245" x2="287.988" y2="134.912"/>
	
		<line fill="none" stroke="#D7B369" stroke-width="3" stroke-linecap="round" stroke-linejoin="round" x1="352.655" y1="170.245" x2="348.655" y2="180.912"/>
	
		<line fill="none" stroke="#D7B369" stroke-width="3" stroke-linecap="round" stroke-linejoin="round" x1="342.988" y1="197.579" x2="340.655" y2="210.912"/>
	<path fill="#FFFFFF" stroke="#D7B369" stroke-width="3" stroke-linecap="round" stroke-linejoin="round" d="M293.321,154.912
		c0,0,5.792,4.727,7.333,6.667c2.973,3.738,6.188,13.073,9.333,16.667c3.293,3.763,16,12,16,12s-1.133-13.717-2.667-18
		c-1.638-4.575-5.812-14.203-10-16.667C309.01,153.042,293.321,154.912,293.321,154.912z"/>
	<path fill="#FFFFFF" stroke="#D7B369" stroke-width="3" stroke-linecap="round" stroke-linejoin="round" d="M303.988,176.245
		c0,0,3.377,6.872,4,9.333c0.903,3.569-0.145,11.294,1.333,14.667c1.896,4.323,9.414,10.58,12.667,14
		c2.274,2.391,9.333,9.333,9.333,9.333s-1.904-15.514-2.667-20.667c-0.593-4.012-0.75-12.427-2.667-16
		c-1.617-3.014-6.893-7.905-10-9.333C313.245,176.318,303.988,176.245,303.988,176.245z"/>
	<path fill="#FFFFFF" stroke="#D7B369" stroke-width="3" stroke-linecap="round" stroke-linejoin="round" d="M325.321,221.579
		c0,0-3.689-12.393-4-16.667c-0.399-5.508,3.333-27.333,3.333-27.333s8.127,10.622,9.333,13.333c1.993,4.482,1.316,15.942,0,20.667
		C333.1,214.766,325.321,221.579,325.321,221.579z"/>
	
		<line fill="none" stroke="#D7B369" stroke-width="3" stroke-linecap="round" stroke-linejoin="round" x1="283.988" y1="148.245" x2="293.321" y2="154.912"/>
	
		<line fill="none" stroke="#D7B369" stroke-width="3" stroke-linecap="round" stroke-linejoin="round" x1="326.655" y1="123.579" x2="327.321" y2="136.912"/>
	
		<line fill="none" stroke="#D7B369" stroke-width="3" stroke-linecap="round" stroke-linejoin="round" x1="338.655" y1="136.245" x2="339.321" y2="152.245"/>
	
		<line fill="none" stroke="#D7B369" stroke-width="3" stroke-linecap="round" stroke-linejoin="round" x1="295.321" y1="170.245" x2="303.988" y2="176.245"/>
	<path fill="#FFFFFF" stroke="#D7B369" stroke-width="3" stroke-linecap="round" stroke-linejoin="round" d="M337.321,168.245
		c0.565-3.698,1.629-7.182-2.667,10"/>
	
		<line fill="none" stroke="#D7B369" stroke-width="3" stroke-linecap="round" stroke-linejoin="round" x1="327.988" y1="197.579" x2="327.988" y2="207.579"/>
	
		<line fill="none" stroke="#D7B369" stroke-width="3" stroke-linecap="round" stroke-linejoin="round" x1="308.655" y1="161.579" x2="317.321" y2="170.245"/>
	
		<line fill="none" stroke="#D7B369" stroke-width="3" stroke-linecap="round" stroke-linejoin="round" x1="214.655" y1="42.912" x2="226.655" y2="51.579"/>
	
		<line fill="none" stroke="#D7B369" stroke-width="3" stroke-linecap="round" stroke-linejoin="round" x1="325.988" y1="150.912" x2="325.321" y2="160.245"/>
	
		<line fill="none" stroke="#D7B369" stroke-width="3" stroke-linecap="round" stroke-linejoin="round" x1="315.988" y1="185.579" x2="317.321" y2="194.245"/>
	
		<line fill="none" stroke="#D7B369" stroke-width="3" stroke-linecap="round" stroke-linejoin="round" x1="280.655" y1="115.579" x2="291.988" y2="124.912"/>
	
		<line fill="none" stroke="#D7B369" stroke-width="3" stroke-linecap="round" stroke-linejoin="round" x1="298.655" y1="141.579" x2="306.071" y2="147.245"/>
	
		<line fill="none" stroke="#D7B369" stroke-width="3" stroke-linecap="round" stroke-linejoin="round" x1="250.655" y1="82.245" x2="262.655" y2="84.245"/>
	
		<line fill="none" stroke="#D7B369" stroke-width="3" stroke-linecap="round" stroke-linejoin="round" x1="258.655" y1="63.579" x2="265.988" y2="70.912"/>
	
		<line fill="none" stroke="#D7B369" stroke-width="3" stroke-linecap="round" stroke-linejoin="round" x1="237.988" y1="67.579" x2="246.655" y2="70.245"/>
	
		<line fill="none" stroke="#D7B369" stroke-width="3" stroke-linecap="round" stroke-linejoin="round" x1="294.655" y1="97.579" x2="295.321" y2="107.579"/>
	
		<line fill="none" stroke="#D7B369" stroke-width="3" stroke-linecap="round" stroke-linejoin="round" x1="308.655" y1="118.912" x2="306.655" y2="124.245"/>
	
		<line fill="none" stroke="#D7B369" stroke-width="3" stroke-linecap="round" stroke-linejoin="round" x1="262.655" y1="96.245" x2="273.321" y2="100.245"/>
	
		<line fill="none" stroke="#D7B369" stroke-width="3" stroke-linecap="round" stroke-linejoin="round" x1="280.655" y1="87.579" x2="282.655" y2="94.912"/>
	
		<line fill="none" stroke="#D7B369" stroke-width="3" stroke-linecap="round" stroke-linejoin="round" x1="243.321" y1="47.579" x2="247.321" y2="54.245"/>
	
		<line fill="none" stroke="#D7B369" stroke-width="3" stroke-linecap="round" stroke-linejoin="round" x1="316.655" y1="131.579" x2="315.988" y2="140.245"/>
	
		<line fill="none" stroke="#D7B369" stroke-width="3" stroke-linecap="round" stroke-linejoin="round" x1="318.655" y1="251.579" x2="318.655" y2="255.579"/>
	
		<line fill="none" stroke="#D7B369" stroke-width="3" stroke-linecap="round" stroke-linejoin="round" x1="325.988" y1="260.245" x2="325.988" y2="265.579"/>
	
		<line fill="none" stroke="#D7B369" stroke-width="3" stroke-linecap="round" stroke-linejoin="round" x1="358.655" y1="202.245" x2="355.988" y2="212.912"/>
	
		<line fill="none" stroke="#D7B369" stroke-width="3" stroke-linecap="round" stroke-linejoin="round" x1="357.988" y1="228.913" x2="354.654" y2="235.579"/>
	
		<line fill="none" stroke="#D7B369" stroke-width="3" stroke-linecap="round" stroke-linejoin="round" x1="355.988" y1="262.245" x2="351.647" y2="264.647"/>
</g>
</svg>
